<svg id="Capa_1" enable-background="new 0 0 512 512" height="512" viewBox="0 0 512 512" width="512" xmlns="http://www.w3.org/2000/svg"><g><g fill="#565e75"><path d="m305.206 464.307c-7.841-22.06-11.964-28.378-21.922-43.642-7.089-10.865-4.028-25.419 6.837-32.508 10.867-7.092 25.42-4.026 32.508 6.837 11.57 17.734 17.545 27.42 26.843 53.578 4.345 12.224-2.042 25.656-14.265 30-12.274 4.364-25.674-2.092-30.001-14.265z"/><path d="m233.417 492.344c-12.892-1.446-22.171-13.068-20.725-25.961 2.372-21.16 2.082-30.822.003-49.111-1.465-12.891 7.797-24.527 20.687-25.992 12.895-1.451 24.526 7.797 25.992 20.687 2.33 20.5 2.883 33.978.003 59.652-1.444 12.89-13.068 22.172-25.96 20.725z"/><path d="m447.802 366.979c-51.284 0-161.357 43.476-161.357-42.014 0-48.651 64.016-107.913 178.265-107.913 26.117 0 47.289 18.81 47.289 42.014 0 17.223-11.669 32.017-28.362 38.503 7.132 7.357 11.453 16.925 11.453 27.396.001 23.204-21.171 42.014-47.288 42.014z"/></g><path d="m429.317 159.354c0-79.542-63.966-139.847-142.872-139.847s-142.872 60.305-142.872 139.847c0 22.413 5.082 40.668 14.145 55.332 5.367 8.685 4.42 19.824-2.089 27.689-2.568 3.102-5.09 6.441-7.661 10.202-24.311 35.567-30.898 79.892-20.102 114.977-35.956 14.188-80.977 23.18-111.567 26.963-11.958 1.479-19.503 13.913-14.967 25.076 7.65 18.826 25.66 31.4 45.968 32.083 68.533 2.305 129.216-12.948 150.116-18.931 3.963-1.135 8.137-1.233 12.168-.37 63.384 13.563 129.639-8.85 166.175-65.788 23.235-36.211 25.743-69.883 15.638-98.567-4.368-12.399-1.144-26.214 8.574-35.068 18.408-16.771 29.346-40.71 29.346-73.598z" fill="#64768e"/><path d="m215.758 226.758c-7.013 10.287-38.663 22.596-69.026 27.685-23.285 35.243-29.474 78.636-18.865 113.112-16.986 6.703-35.995 12.244-54.55 16.626 4.534 9.679 14.013 20.142 22.929 26.188 11.175 7.579 25.253 11.584 40.712 11.584 38.531 0 77.105-13.96 96.829-46.62 29.396-48.676 19.461-127.445-18.029-148.575z" fill="#565e75"/><path d="m115.528 338.681c-31.013 14.834-23.113 52.366 17.596 52.366 54.169 0 92.675-43.415 102.708-87.868 7.745-34.317 1.108-81.895-41.451-85.509-38.191-3.243-51.748 54.301-82.464 74.008-29.215 18.745-19.079 41.03 3.611 47.003z" fill="#64768e"/><g><g fill="#eda1ab"><ellipse cx="228.784" cy="147.974" rx="30.241" ry="24.082"/><ellipse cx="392.699" cy="147.974" rx="30.241" ry="24.082"/></g><g fill="#4e5660"><path d="m246.408 132.292c-4.143 0-7.5-3.357-7.5-7.5v-12.362c0-4.143 3.357-7.5 7.5-7.5s7.5 3.357 7.5 7.5v12.362c0 4.143-3.357 7.5-7.5 7.5z"/><path d="m375.075 132.292c-4.143 0-7.5-3.357-7.5-7.5v-12.362c0-4.143 3.357-7.5 7.5-7.5s7.5 3.357 7.5 7.5v12.362c0 4.143-3.357 7.5-7.5 7.5z"/></g></g><path d="m289.794 106.283c-5.073 6.19-11.697 17.13-14.441 34.107-.553 3.422.338 6.958 2.564 9.615 11.99 14.311 39.22 23.095 64.759 24.704 8.283.522 14.604-7.206 12.532-15.243-4.639-17.989-17.676-41.707-51.12-56.508-4.975-2.201-10.845-.883-14.294 3.325z" fill="#565e75"/></g></svg>