<svg id="Capa_1" enable-background="new 0 0 512 512" height="512" viewBox="0 0 512 512" width="512" xmlns="http://www.w3.org/2000/svg"><g><path d="m468.759 194.473c-9.892 9.892-21.266 37.304-11.374 47.196s37.304-1.482 47.196-11.374 9.892-25.93 0-35.822-25.93-9.892-35.822 0z" fill="#f8d4a5"/><path d="m222.156 448.341c-14.098-2.651-23.378-16.229-20.727-30.327 1.975-10.503 1.513-23.025.889-32.762-.917-14.316 9.945-26.664 24.261-27.581 14.301-.917 26.665 9.945 27.581 24.261.818 12.767 1.366 29.498-1.678 45.682-2.655 14.121-16.253 23.376-30.326 20.727z" fill="#e1b89a"/><path d="m356.835 428.67c-2.491-10.768-4.781-17.041-11.761-25.741-8.977-11.189-7.183-27.537 4.006-36.514 11.19-8.977 27.538-7.183 36.514 4.006 12.971 16.167 17.978 29.793 21.852 46.538 3.234 13.976-5.475 27.927-19.451 31.161-14.036 3.248-27.94-5.534-31.16-19.45z" fill="#e7c7af"/><path d="m328.135 404.968s-29.394 0-125.945 0-145.955-70.993-130.747-134.592c14.751-61.686 97.222-148.413 256.692-148.413 78.15 0 141.502 63.353 141.502 141.502s-63.352 141.503-141.502 141.503z" fill="#fae0bd"/><path d="m91.581 353.044c29.265-3.582 98.726-52.772 147.478-129.03 62.027-58.679 196.198-25.7 225.514 1.833l13.293-64.003c1.525-7.345-4.083-14.238-11.585-14.238h-3.45c-5.025 0-8.919-4.393-8.317-9.382l3.891-32.208c.731-6.055-5.046-10.837-10.857-8.987l-24.053 7.654c-3.616 1.151-7.553-.273-9.597-3.469l-21.483-33.589c-2.964-4.634-9.514-5.202-13.232-1.148l-18.555 20.235c-2.86 3.118-7.596 3.615-11.04 1.158l-32.384-23.106c-4.473-3.192-10.756-1.284-12.701 3.855l-5.671 14.989c-1.741 4.602-7.055 6.72-11.484 4.576l-42.795-20.71c-4.965-2.403-10.856.565-11.881 5.984l-2.769 14.646c-1.033 5.462-7.001 8.422-11.974 5.939l-39.685-19.814c-4.678-2.336-10.329.138-11.787 5.159l-9.888 34.051c-1.343 4.626-6.301 7.169-10.842 5.56l-40.433-14.321c-5.374-1.903-11.038 2-11.172 7.699l-.731 31.051c-.104 4.4-3.594 7.969-7.99 8.171l-40.237 1.85c-5.944.273-9.716 6.483-7.219 11.884l13.679 29.583c2.068 4.472-.151 9.754-4.793 11.407l-35.696 12.717c-5.96 2.123-7.506 9.834-2.824 14.09l19.73 17.939c3.505 3.187 3.673 8.644.369 12.04l-26.035 26.761c-4.137 4.253-2.664 11.34 2.825 13.592l27.77 11.393c3.576 1.467 5.552 5.319 4.658 9.079l-9.21 38.729c-1.885 7.926 6.132 14.576 13.573 11.258l42.676-19.027c2.193-.977 4.531-1.558 6.914-1.85z" fill="#e7c7af"/><path d="m153.244 118.015c-2.126 1.449-4.889 1.915-7.516.984l-40.433-14.321c-5.374-1.903-11.038 2-11.172 7.699l-.731 31.051c-.104 4.4-3.594 7.969-7.99 8.171l-40.237 1.85c-5.944.273-9.716 6.483-7.219 11.884l13.679 29.583c2.068 4.472-.151 9.754-4.793 11.407l-35.697 12.717c-5.96 2.123-7.506 9.834-2.825 14.09l19.73 17.939c3.505 3.187 3.673 8.644.369 12.04l-26.034 26.761c-4.137 4.253-2.664 11.34 2.825 13.592l27.771 11.393c3.576 1.467 5.552 5.319 4.658 9.079l-9.21 38.729c-1.885 7.926 6.132 14.576 13.573 11.258l42.676-19.027c2.192-.977 4.53-1.558 6.913-1.85 20.403-2.497 60.341-27.168 99.18-67.717-54.096-45.052-47.607-124.563-37.517-167.312z" fill="#e1b89a"/><path d="m235.327 194.473c9.892 9.892 21.266 37.304 11.374 47.196s-37.304-1.482-47.196-11.374-9.892-25.93 0-35.822 25.93-9.892 35.822 0z" fill="#f8d4a5"/><g fill="#d2896f"><path d="m115.281 286.53h-19.901c-4.142 0-7.5-3.358-7.5-7.5s3.358-7.5 7.5-7.5h19.901c4.142 0 7.5 3.358 7.5 7.5s-3.358 7.5-7.5 7.5z"/><path d="m149.479 215.535c-1.919 0-3.839-.732-5.303-2.197l-14.467-14.467c-2.929-2.929-2.929-7.678 0-10.606 2.929-2.929 7.678-2.929 10.606 0l14.467 14.467c2.929 2.929 2.929 7.678 0 10.606-1.464 1.464-3.384 2.197-5.303 2.197z"/><path d="m272.664 152.717c-1.92 0-3.839-.732-5.303-2.197-2.929-2.929-2.929-7.678 0-10.606l13.228-13.228c2.929-2.929 7.678-2.929 10.606 0 2.929 2.929 2.929 7.678 0 10.607l-13.228 13.227c-1.464 1.465-3.384 2.197-5.303 2.197z"/><path d="m389.585 152.717h-20.731c-4.142 0-7.5-3.358-7.5-7.5s3.358-7.5 7.5-7.5h20.731c4.142 0 7.5 3.358 7.5 7.5s-3.357 7.5-7.5 7.5z"/></g><path d="m176.724 448.232c-14.037-2.957-23.02-16.732-20.063-30.77 2.391-11.351 3.325-22.489 2.703-32.209-.917-14.316 9.945-26.664 24.261-27.581 14.318-.917 26.664 9.945 27.581 24.261.932 14.558-.317 30.113-3.712 46.235-2.956 14.035-16.73 23.019-30.77 20.064z" fill="#f8d4a5"/><path d="m309.074 431.869c-3.987-10.72-7.872-18.892-15.933-28.94-8.977-11.189-7.183-27.537 4.006-36.514s27.538-7.183 36.514 4.006c12.354 15.399 18.57 28.462 24.103 43.339 5 13.446-1.846 28.399-15.291 33.399-13.448 5.001-28.398-1.845-33.399-15.29z" fill="#f8d4a5"/><g><g fill="#eda1ab"><ellipse cx="270.085" cy="287.104" rx="30.241" ry="24.082"/><ellipse cx="434" cy="287.104" rx="30.241" ry="24.082"/></g><g fill="#4e5660"><path d="m287.71 271.422c-4.142 0-7.5-3.358-7.5-7.5v-12.362c0-4.142 3.358-7.5 7.5-7.5s7.5 3.358 7.5 7.5v12.362c0 4.142-3.358 7.5-7.5 7.5z"/><path d="m416.376 271.422c-4.142 0-7.5-3.358-7.5-7.5v-12.362c0-4.142 3.358-7.5 7.5-7.5s7.5 3.358 7.5 7.5v12.362c0 4.142-3.358 7.5-7.5 7.5z"/><path d="m352.043 299.483c-8.668 0-16.911-3.754-22.615-10.3-2.721-3.123-2.396-7.86.727-10.581 3.122-2.721 7.86-2.397 10.582.727 2.854 3.275 6.976 5.154 11.307 5.154s8.453-1.879 11.307-5.154c2.721-3.123 7.458-3.448 10.582-.727 3.123 2.721 3.448 7.459.727 10.581-5.706 6.546-13.949 10.3-22.617 10.3z"/><path d="m352.043 263.922c7.081 0 16.961-6.23 16.961-12.678 0-4.713-6.817-6.373-16.961-6.373s-16.961 1.66-16.961 6.373c0 6.448 9.88 12.678 16.961 12.678z"/></g></g></g></svg>