<svg id="Capa_1" enable-background="new 0 0 512 512" height="512" viewBox="0 0 512 512" width="512" xmlns="http://www.w3.org/2000/svg"><g><path d="m309.095 442.679h-106.19l7.111 44.987c2.216 14.014 14.295 24.334 28.483 24.334h35.002c14.188 0 26.268-10.32 28.483-24.334z" fill="#89d47f"/><path d="m133.344 307.175c-41.327-59.12-36.384-131.793-27.034-170.832 3.116-13.009 17.168-20.269 29.465-15.003 37.577 16.095 81.742 61.883 96.257 101.629z" fill="#b0da87"/><path d="m378.656 307.175c41.326-59.12 36.384-131.793 27.033-170.832-3.116-13.009-17.168-20.269-29.465-15.003-37.577 16.095-81.742 61.883-96.257 101.629z" fill="#89d47f"/><path d="m256 410.984c66.52 0 120.444-45.144 120.444-111.663 0-141.965-29.724-299.321-120.444-299.321s-120.444 157.356-120.444 299.321c0 66.52 53.924 111.663 120.444 111.663z" fill="#f6ee86"/><path d="m376.444 299.321c0-46.392-3.176-94.426-10.616-138.077-34.908 16.525-76.398 44.783-109.828 79.177-33.43-34.393-74.92-62.651-109.828-79.176-7.44 43.651-10.616 91.685-10.616 138.077 0 66.519 53.925 111.663 120.444 111.663s120.444-45.144 120.444-111.664z" fill="#f2d98d"/><g><g fill="#eda1ab"><ellipse cx="174.042" cy="196.683" rx="30.241" ry="24.082"/><ellipse cx="337.958" cy="196.683" rx="30.241" ry="24.082"/></g><g fill="#4e5660"><path d="m191.666 181c-4.143 0-7.5-3.358-7.5-7.5v-12.362c0-4.142 3.357-7.5 7.5-7.5s7.5 3.358 7.5 7.5v12.362c0 4.142-3.357 7.5-7.5 7.5z"/><path d="m320.333 181c-4.143 0-7.5-3.358-7.5-7.5v-12.362c0-4.142 3.357-7.5 7.5-7.5s7.5 3.358 7.5 7.5v12.362c0 4.142-3.357 7.5-7.5 7.5z"/><path d="m256 188.359c-8.668 0-16.911-3.754-22.615-10.299-2.722-3.123-2.396-7.86.727-10.582 3.122-2.722 7.859-2.397 10.582.726 2.854 3.276 6.975 5.154 11.307 5.154 4.331 0 8.452-1.878 11.307-5.154 2.722-3.123 7.46-3.448 10.582-.726 3.123 2.721 3.448 7.459.727 10.582-5.706 6.545-13.949 10.299-22.617 10.299z"/></g></g><path d="m256 456.957c-83.428 0-215.338-67.442-170.984-260.707 2.831-12.337 15.685-19.579 27.654-15.458 77.521 26.689 251.405 159.004 143.33 276.165z" fill="#89d47f"/><path d="m256 456.957c83.428 0 215.338-67.442 170.984-260.707-2.831-12.337-15.685-19.579-27.654-15.458-77.521 26.689-251.405 159.004-143.33 276.165z" fill="#b0da87"/><g fill="#f2d98d"><path d="m215.821 109.68h-10.508c-4.143 0-7.5-3.358-7.5-7.5s3.357-7.5 7.5-7.5h10.508c4.143 0 7.5 3.358 7.5 7.5s-3.357 7.5-7.5 7.5z"/><path d="m252.67 52.647h-15.522c-4.143 0-7.5-3.358-7.5-7.5s3.357-7.5 7.5-7.5h15.522c4.143 0 7.5 3.358 7.5 7.5s-3.357 7.5-7.5 7.5z"/><path d="m299.229 86.393h-15.522c-4.142 0-7.5-3.358-7.5-7.5s3.358-7.5 7.5-7.5h15.522c4.143 0 7.5 3.358 7.5 7.5s-3.357 7.5-7.5 7.5z"/></g><path d="m313.904 371.845c-2.067 0-4.124-.849-5.606-2.515-2.753-3.095-2.477-7.836.618-10.589 28.36-25.232 47.438-55.33 58.446-76.135 1.936-3.661 6.474-5.06 10.137-3.122 3.661 1.938 5.059 6.476 3.121 10.137-11.586 21.896-31.702 53.607-61.733 80.327-1.429 1.272-3.209 1.897-4.983 1.897z" fill="#89d47f"/><path d="m176.025 349.468c-2.094 0-4.177-.872-5.66-2.576-14.69-16.876-27.807-36.145-38.985-57.271-1.938-3.661-.54-8.2 3.121-10.137 3.661-1.939 8.199-.54 10.137 3.121 10.643 20.111 23.105 38.427 37.042 54.438 2.72 3.125 2.392 7.862-.733 10.582-1.421 1.237-3.176 1.843-4.922 1.843z" fill="#b0da87"/></g></svg>