<svg id="Capa_1" enable-background="new 0 0 512 512" height="512" viewBox="0 0 512 512" width="512" xmlns="http://www.w3.org/2000/svg"><g><path d="m294.617 80.647c25.878-25.878 59.836-38.676 86.889-45.005 23.679-5.539 44.916 15.698 39.377 39.377-6.329 27.053-19.127 61.011-45.005 86.889s-59.836 38.676-86.889 45.005c-23.679 5.539-44.916-15.698-39.377-39.377 6.328-27.053 19.126-61.011 45.005-86.889z" fill="#b0da87"/><path d="m306.785 157.239c-1.919 0-3.839-.732-5.304-2.197-2.929-2.929-2.929-7.678 0-10.606l56.923-56.923c2.93-2.929 7.678-2.929 10.607 0s2.929 7.678 0 10.606l-56.923 56.923c-1.464 1.464-3.384 2.197-5.303 2.197z" fill="#89d47f"/><path d="m196.593 61.944c25.878 25.878 38.676 59.836 45.005 86.889 5.539 23.679-15.698 44.916-39.377 39.377-27.053-6.329-61.011-19.127-86.889-45.005s-38.676-59.836-45.005-86.889c-5.539-23.679 15.698-44.916 39.377-39.377 27.053 6.328 61.011 19.127 86.889 45.005z" fill="#b0da87"/><path d="m184.424 138.535c-1.919 0-3.839-.733-5.303-2.197l-56.923-56.923c-2.929-2.929-2.929-7.678 0-10.606 2.929-2.929 7.678-2.929 10.606 0l56.923 56.923c2.929 2.929 2.929 7.678 0 10.606-1.464 1.465-3.383 2.197-5.303 2.197z" fill="#89d47f"/><path d="m203.812 183.934c-3.477-63.695 6.802-119.105 48.344-169.488l.364-.441c13.522-16.4 37.78-18.733 54.18-5.211 16.4 13.523 18.373 37.489 5.211 54.18-20.943 26.558-42.98 63.777-49.502 121.206-2.206 19.426-14.96 28.465-31.137 27.445-15.015-.946-26.676-13.027-27.46-27.691z" fill="#e1ac9a"/><path d="m233.118 122.442c-7.897-5.637-16.299-10.543-25.082-14.683-4.701 24.09-5.686 49.398-4.224 76.175.784 14.665 12.445 26.745 27.46 27.691 16.177 1.019 28.931-8.02 31.137-27.445 4.147-36.512 14.568-64.846 26.989-87.474-20.269 4.994-39.424 13.705-56.28 25.736z" fill="#d2896f"/><path d="m217.364 473.419c8.983-8.042 22.524-8.042 31.507 0 10.289 9.212 24.97 16.873 46.545 16.873 72.905 0 164.336-136.1 164.336-246.088 0-67.107-58.157-121.508-129.898-121.508-32.258 0-61.767 11.003-84.479 29.211-7.181 5.757-17.335 5.757-24.516 0-22.712-18.209-52.22-29.211-84.478-29.211-71.74 0-129.898 54.401-129.898 121.508 0 109.988 91.43 246.088 164.335 246.088 21.577 0 36.257-7.661 46.546-16.873z" fill="#f6ee86"/><path d="m151.084 123.469c-4.826-.509-9.731-.772-14.703-.772-71.74 0-129.898 54.401-129.898 121.508 0 109.988 91.43 246.088 164.335 246.088 21.575 0 36.256-7.661 46.545-16.873 8.983-8.042 22.524-8.042 31.507 0 10.289 9.212 24.97 16.873 46.545 16.873 20.954 0 43.437-11.259 64.841-29.893-275.41-18.865-243.856-269.72-209.172-336.931z" fill="#f2d98d"/><path d="m505.411 362.973c-1.277-28.158-14.307-54.986-34.487-75.036-10.029-9.964-26.204-10.005-36.2-.009l-11.316 11.315c-11.021 43.052-108.969 140.154-157.222 157.222l-6.799 6.799c-10.743 10.743-7.387 28.981 6.529 35.078 23.94 10.488 61.855 20.672 107.818 7.207 33.829-9.91 67.674-31.629 100.598-64.552 21.355-21.354 32.393-49.064 31.079-78.024z" fill="#f2d98d"/><path d="m444.69 314.745c-6.33-6.405-13.553-11.577-21.281-15.5l-157.222 157.221c68.341 39.052 129.79 9.839 181.621-41.992 29.005-29.006 25.714-70.552-3.118-99.729z" fill="#fbf1cf"/><path d="m389.065 400.199h-10.684c-4.143 0-7.5-3.358-7.5-7.5s3.357-7.5 7.5-7.5h10.684c4.143 0 7.5 3.358 7.5 7.5s-3.357 7.5-7.5 7.5z" fill="#e1ac9a"/><g><g><ellipse cx="146.741" cy="286.292" fill="#eda1ab" rx="31.872" ry="25.381"/><ellipse cx="319.495" cy="286.292" fill="#eda1ab" rx="31.872" ry="25.381"/><ellipse cx="233.118" cy="266.791" fill="#4e5660" rx="16.918" ry="18.931"/></g><g fill="#4e5660"><path d="m183.308 262.963c-4.142 0-7.5-3.358-7.5-7.5 0-3.684-2.997-6.68-6.681-6.68s-6.68 2.997-6.68 6.68c0 4.142-3.358 7.5-7.5 7.5s-7.5-3.358-7.5-7.5c0-11.955 9.726-21.68 21.68-21.68 11.955 0 21.681 9.726 21.681 21.68 0 4.142-3.358 7.5-7.5 7.5z"/><path d="m310.066 262.963c-4.143 0-7.5-3.358-7.5-7.5 0-3.684-2.996-6.68-6.68-6.68s-6.681 2.997-6.681 6.68c0 4.142-3.357 7.5-7.5 7.5s-7.5-3.358-7.5-7.5c0-11.955 9.726-21.68 21.681-21.68 11.954 0 21.68 9.726 21.68 21.68 0 4.142-3.357 7.5-7.5 7.5z"/></g></g></g></svg>