<svg id="Capa_1" enable-background="new 0 0 512 512" height="512" viewBox="0 0 512 512" width="512" xmlns="http://www.w3.org/2000/svg"><g><path d="m184.651 48.671c-11.134-11.134-11.134-29.186 0-40.32s29.186-11.134 40.32 0c16.148 16.148 20.043 41.199 22.818 62.611l-30.531 15.464c-7.138-22.602-25.579-30.727-32.607-37.755z" fill="#f3a977"/><path d="m311.701 231.929c44.884 18.482 90.208 24.897 118.188 24.897 30.954 0 49.358-31.812 38.209-57.73-2.118-4.924.231-10.611 5.208-12.601 15.407-6.158 26.257-21.289 26.089-38.933-.218-22.857-19.392-41.125-42.249-41.07-62.219.148-108.196 18.164-145.445 41.389z" fill="#f6ca8e"/><path d="m424.815 166.558c0 32.533-9.909 62.815-26.885 88.063-25.27-3.205-55.846-10.181-86.228-22.692v-84.047c28.113-17.529 61.203-32.085 102.491-38.237 6.854 17.685 10.622 36.871 10.622 56.913z" fill="#f3a977"/><ellipse cx="263.719" cy="166.558" fill="#f6ca8e" rx="125.04" ry="123.346"/><g><g fill="#fff"><ellipse cx="345.677" cy="151.641" rx="30.241" ry="24.082"/><ellipse cx="181.761" cy="151.641" rx="30.241" ry="24.082"/></g><g fill="#4e5660"><path d="m328.052 135.959c-4.142 0-7.5-3.357-7.5-7.5v-12.362c0-4.143 3.358-7.5 7.5-7.5s7.5 3.357 7.5 7.5v12.362c0 4.143-3.358 7.5-7.5 7.5z"/><path d="m199.385 135.959c-4.142 0-7.5-3.357-7.5-7.5v-12.362c0-4.143 3.358-7.5 7.5-7.5s7.5 3.357 7.5 7.5v12.362c0 4.143-3.358 7.5-7.5 7.5z"/></g></g><path d="m30.855 236.904c0-53.047 38.501-120.807 85.995-120.807s85.995 67.76 85.995 120.807-38.501 96.05-85.995 96.05-85.995-43.003-85.995-96.05z" fill="#ceeafb"/><path d="m94.761 121.018c-36.789 16.498-63.906 71.369-63.906 115.886 0 53.047 38.501 96.05 85.995 96.05 35.438 0 65.865-23.944 79.031-58.136-95.027 27.388-143.111-96.628-101.12-153.8z" fill="#a3defe"/><path d="m418.552 326.332c24.726 91.322-20.028 185.668-180.523 185.668s-205.248-94.346-180.523-185.668z" fill="#e1ac9a"/><path d="m57.506 326.332c-6.35 23.455-8.103 47.105-4.503 69.309 49.413 8.989 123.202 17.478 186.713 17.478 62.038 0 133.884-8.1 183.237-16.854 3.735-22.384 2.009-46.258-4.401-69.933z" fill="#d2896f"/><path d="m465.955 305.196c-3.55-17.602-16.958-30.714-33.322-34.741-4.47-1.1-8.417-3.733-11.098-7.476-12.332-17.22-33.01-28.519-56.448-28.519-24.061 0-45.221 11.902-57.423 29.899-2.791 4.117-8.726 4.18-11.635.145-12.345-17.12-32.956-28.342-56.313-28.342s-43.968 11.222-56.313 28.342c-2.909 4.034-8.844 3.972-11.635-.145-12.202-17.997-33.362-29.899-57.423-29.899-23.439 0-44.117 11.299-56.449 28.52-2.681 3.743-6.628 6.377-11.099 7.477-16.363 4.026-29.765 17.131-33.318 34.729-4.952 24.527 11.621 48.28 36.17 53.125 47.44 9.363 124.298 18.75 190.067 18.75s142.624-9.387 190.065-18.75c24.545-4.843 41.12-28.59 36.174-53.115z" fill="#fbf1cf"/><path d="m274.062 169.481c-5.309 6.606-15.377 6.606-20.686 0-8.134-10.122-17.013-24.94-17.013-36.117 0-16.693 17.231-23.72 27.356-23.72 10.124 0 27.355 7.027 27.355 23.72 0 11.177-8.878 25.995-17.012 36.117z" fill="#f6ee86"/><g fill="#d2896f"><path d="m170.543 438.619c-46.744 0-90.638-10.73-110.273-16.304 2.428 6.158 5.354 12.129 8.807 17.867 23.504 5.888 61.444 13.436 101.466 13.436 4.142 0 7.5-3.357 7.5-7.5 0-4.141-3.358-7.499-7.5-7.499z"/><path d="m312.958 460.887c-4.133-.356-7.749 2.732-8.088 6.861-.338 4.128 2.733 7.749 6.862 8.088 10.987.901 42.791-1.642 71.702-7.447 6.884-6.11 12.847-12.726 17.943-19.755-33.339 9.868-78.826 13.039-88.419 12.253z"/></g></g></svg>