<svg id="Capa_1" enable-background="new 0 0 512 512" height="512" viewBox="0 0 512 512" width="512" xmlns="http://www.w3.org/2000/svg"><g><path d="m349.354 475.916c-18.122 0-32.814-14.691-32.814-32.814 0-14.171-3.996-53.032-5.823-62.195-3.545-17.773 7.989-35.055 25.762-38.599 17.768-3.548 35.054 7.989 38.599 25.761 2.736 13.715 7.091 57.108 7.091 75.033 0 18.123-14.692 32.814-32.815 32.814z" fill="#e68a97"/><path d="m174.706 176.135c-19.759-19.759-56.944-38.733-100.721-43.051-22.658 24.436-41.361 45.955-49.037 79.048 5.869 25.703 8.574 48.474 34.659 75.441 30.904 31.949 82.916 33.496 114.61 2.331 31.77-31.241 31.933-82.324.489-113.769z" fill="#e68a97"/><path d="m174.217 289.904c31.771-31.241 31.934-82.324.489-113.768-15.139-15.139-40.509-29.817-71.234-37.797.786 34.728-8.508 104.049-60.459 128.065 4.166 6.843 9.515 13.851 16.594 21.17 30.904 31.948 82.916 33.495 114.61 2.33z" fill="#e26e7e"/><path d="m8.652 138.243c-7.691 2.042-11.091 11.021-6.727 17.675 13.988 21.325 19.182 39.396 23.023 56.213 22.98-10.587 49.937-37.675 49.037-79.048-20.687-2.04-42.844-.812-65.333 5.16z" fill="#64768e"/><path d="m180.674 400.865c-48.935-6.951-82.969-52.256-76.019-101.19 6.952-48.935 52.249-82.98 101.19-76.018 45.125 6.41 60.793 2.986 64.085 1.994 42.152-24.347 96.204-10.517 121.41 31.358 25.49 42.346 11.825 97.338-30.522 122.827-52.879 31.83-118.868 29.733-180.144 21.029zm89.828-175.403s-.001.001-.001.001c.001-.001.001-.001.001-.001z" fill="#eda1ab"/><path d="m269.93 225.651c-3.291.992-18.96 4.416-64.085-1.994-38.869-5.529-75.438 14.81-92.326 47.929 17.836 18.819 39.326 34.26 64.308 46.154 37.746 17.973 81.76 27.086 130.818 27.086 32.479 0 62.73-4.019 90.432-11.934 8.544-24.302 6.585-52.088-7.737-75.882-25.205-41.876-79.258-55.706-121.41-31.359z" fill="#e68a97"/><path d="m149.675 477.745c-16.857-6.655-25.128-25.714-18.473-42.571 5.262-13.328 13.154-40.288 14.225-58.494 1.065-18.092 16.596-31.879 34.686-30.829 18.091 1.065 31.894 16.595 30.829 34.686-1.717 29.166-12.981 64.255-18.696 78.735-6.674 16.905-25.758 25.108-42.571 18.473z" fill="#eda1ab"/><path d="m299.201 483.361c-18.123 0-32.814-14.691-32.814-32.814 0-12.199-3.145-47.46-5.277-62.154-2.602-17.935 9.829-34.583 27.763-37.185 17.942-2.596 34.583 9.829 37.185 27.764 2.353 16.216 5.957 54.732 5.957 71.575 0 18.123-14.692 32.814-32.814 32.814z" fill="#eda1ab"/><path d="m157.687 28.797c-12.21-1.461-22.854 7.335-24.435 18.868 31.587 31.748 63.731 57.042 99.685 85.924l38.229-38.229c-29.333-45.332-80.873-62.661-113.479-66.563z" fill="#64768e"/><path d="m232.937 133.59c-26.225-50.011-65.98-75.841-99.685-85.924-.249 1.815-.281 3.696-.051 5.618 3.902 32.606 21.231 84.146 66.563 113.479z" fill="#fae0bd"/><path d="m459.605 28.797c12.21-1.461 22.854 7.335 24.435 18.868-31.587 31.748-63.731 57.042-99.685 85.924l-38.229-38.229c29.333-45.332 80.873-62.661 113.479-66.563z" fill="#64768e"/><path d="m384.355 133.59c26.225-50.011 65.98-75.841 99.685-85.924.249 1.815.281 3.696.051 5.618-3.902 32.606-21.231 84.146-66.564 113.479z" fill="#fae0bd"/><path d="m308.646 85.958c-95.969 0-134.807 53.043-176.864 56.917-7.005.645-11.724 7.523-9.611 14.233 3.874 12.3 11.023 26.669 23.15 32.733 0 0-15.275 2.291-29.03 2.362-8.254.042-13.506 8.737-9.777 16.1 38.794 76.6 119.429 105.618 202.133 105.618s163.339-29.018 202.133-105.618c3.729-7.363-1.523-16.058-9.777-16.1-13.755-.071-29.03-2.362-29.03-2.362 12.127-6.063 19.276-20.432 23.15-32.733 2.113-6.71-2.606-13.587-9.611-14.233-42.059-3.874-80.897-56.917-176.866-56.917z" fill="#eda1ab"/><g><g fill="#fff"><ellipse cx="224.215" cy="209.289" rx="31.153" ry="24.809"/><ellipse cx="393.077" cy="209.289" rx="31.154" ry="24.809"/></g><g fill="#4e5660"><path d="m242.371 192.907c-4.142 0-7.5-3.358-7.5-7.5v-12.735c0-4.142 3.358-7.5 7.5-7.5s7.5 3.358 7.5 7.5v12.735c0 4.142-3.358 7.5-7.5 7.5z"/><path d="m374.921 192.907c-4.143 0-7.5-3.358-7.5-7.5v-12.735c0-4.142 3.357-7.5 7.5-7.5s7.5 3.358 7.5 7.5v12.735c0 4.142-3.357 7.5-7.5 7.5z"/><path d="m308.647 221.814c-8.865 0-17.295-3.839-23.128-10.533-2.722-3.123-2.396-7.86.727-10.581 3.122-2.721 7.861-2.396 10.581.727 2.983 3.424 7.291 5.387 11.819 5.387 4.526 0 8.834-1.964 11.818-5.388 2.722-3.123 7.46-3.448 10.582-.726 3.123 2.722 3.447 7.459.727 10.581-5.833 6.695-14.263 10.533-23.126 10.533z"/><path d="m308.646 185.406c7.295 0 17.473-6.418 17.473-13.061 0-4.855-7.023-6.566-17.473-6.566s-17.473 1.711-17.473 6.566c0 6.644 10.178 13.061 17.473 13.061z"/></g></g></g></svg>